<svg xmlns="http://www.w3.org/2000/svg" width="50" height="50" viewBox="0 0 50 50" fill="none">
  <path d="M20.8333 37.5H29.1667M15.0001 6.25H35C37.3335 6.25 38.5004 6.25 39.3917 6.70415C40.1756 7.1036 40.8131 7.74102 41.2125 8.52504C41.6667 9.41633 41.6667 10.5831 41.6667 12.9167V24.5833C41.6667 26.9169 41.6667 28.0837 41.2125 28.975C40.8131 29.759 40.1756 30.3965 39.3917 30.7958C38.5004 31.25 37.3335 31.25 35 31.25H15.0001C12.6665 31.25 11.4997 31.25 10.6084 30.7958C9.82442 30.3965 9.187 29.759 8.78752 28.975C8.3334 28.0837 8.3334 26.9169 8.3334 24.5833V12.9167C8.3334 10.5831 8.3334 9.41633 8.78752 8.52504C9.187 7.74102 9.82442 7.1036 10.6084 6.70415C11.4997 6.25 12.6665 6.25 15.0001 6.25ZM9.56017 43.75H40.44C42.2258 43.75 43.1187 43.75 43.6565 43.374C44.126 43.0454 44.4398 42.5381 44.5235 41.9712C44.6194 41.3219 44.22 40.5233 43.4215 38.926L42.3473 36.7779C41.344 34.7712 40.8423 33.7679 40.094 33.0348C39.4321 32.3867 38.6344 31.8937 37.7585 31.5917C36.7683 31.25 35.6465 31.25 33.4031 31.25H16.5971C14.3536 31.25 13.2318 31.25 12.2415 31.5917C11.3657 31.8937 10.568 32.3867 9.90619 33.0348C9.15777 33.7679 8.6561 34.7712 7.65279 36.7779L6.57875 38.926C5.78008 40.5233 5.38075 41.3219 5.47667 41.9712C5.56042 42.5381 5.874 43.0454 6.34358 43.374C6.88138 43.75 7.77429 43.75 9.56017 43.75Z" stroke="black" stroke-width="5.33333" stroke-linecap="round" stroke-linejoin="round"/>
</svg>